<svg width="44" height="16" viewBox="0 0 44 16" fill="none" xmlns="http://www.w3.org/2000/svg">
<path d="M7.62895 16C7.62895 16 -0.926359 13.0748 0.0827295 1.10803C2.53964 0.443213 5.0843 0.0443213 7.62895 0C10.2175 0.0443213 12.7621 0.398892 15.2191 1.10803C16.2281 13.0305 7.62895 16 7.62895 16Z" fill="url(#paint0_linear_78_267)"/>
<path d="M7.62895 16C7.62895 16 -0.926359 13.0748 0.0827295 1.10803C2.53964 0.443213 5.0843 0.0443213 7.62895 0C10.2175 0.0443213 12.7621 0.398892 15.2191 1.10803L14.4293 1.81717L7.62895 15.2465V16Z" fill="url(#paint1_linear_78_267)"/>
<path d="M7.62859 15.2465C7.62859 15.2465 -0.0931287 12.5872 0.784339 1.7285C3.02188 1.108 5.3033 0.753428 7.62859 0.709106C9.95388 0.753428 12.2792 1.108 14.5167 1.7285C15.3942 12.5429 7.62859 15.2465 7.62859 15.2465Z" fill="white" stroke="black" stroke-width="0.515" stroke-linecap="round"/>
<path d="M7.62859 15.2465C7.62859 15.2465 -0.0931287 12.5872 0.784339 1.7285C3.02188 1.108 5.3033 0.753428 7.62859 0.709106C9.95388 0.753428 12.2792 1.108 14.5167 1.7285C15.3942 12.5429 7.62859 15.2465 7.62859 15.2465Z" fill="white"/>
<path d="M0.740732 1.59557H0.652986V1.68422C0.214252 7.35735 2.10081 10.7701 3.81187 12.6316C4.86483 13.8283 6.18103 14.759 7.62886 15.3352L7.67273 15.3795H7.7166C9.16443 14.8033 10.4806 13.8726 11.5336 12.6759C13.2008 10.8144 15.1312 7.40167 14.6486 1.77286V1.6399H14.5609C12.3233 1.0194 9.99802 0.709147 7.67273 0.664825C5.34744 0.709147 3.02215 1.0194 0.740732 1.59557ZM7.76048 0.753468C9.99802 0.79779 12.2794 1.15236 14.4731 1.72854C14.517 2.26039 14.517 2.92521 14.517 3.41275C14.517 7.97785 12.8498 10.8587 11.3581 12.4986C10.349 13.651 9.07668 14.5817 7.62886 15.1579C6.22491 14.5817 4.95258 13.651 3.89962 12.4986C2.4518 10.8587 0.784606 8.02217 0.784606 3.41275C0.784606 2.92521 0.82848 2.26039 0.872353 1.72854C1.39883 1.68422 4.60159 0.753468 7.76048 0.753468Z" fill="url(#paint2_linear_78_267)"/>
<path d="M7.62934 13.8725C7.62934 13.8725 1.13608 11.4792 1.88193 2.39331C1.88193 2.39331 4.7337 2.61492 7.62934 2.61492C10.525 2.61492 13.3329 2.39331 13.4206 2.39331C14.1665 11.4792 7.62934 13.8725 7.62934 13.8725Z" fill="url(#paint3_linear_78_267)"/>
<path d="M7.62851 13.1191C7.62851 13.1191 2.01272 11.036 2.67082 3.19116C2.67082 3.19116 5.12773 3.36845 7.62851 3.36845C10.1293 3.36845 12.5423 3.19116 12.6301 3.19116C13.2882 10.9917 7.62851 13.0748 7.62851 13.1191Z" fill="url(#paint4_radial_78_267)"/>
<path d="M13.4205 2.39331C13.3328 2.39331 10.5249 2.61492 7.62925 2.61492C4.73361 2.61492 1.88184 2.39331 1.88184 2.39331L2.67156 3.19109C2.67156 3.19109 5.12847 3.36838 7.62925 3.36838C10.13 3.36838 12.5431 3.14677 12.6308 3.14677L13.4205 2.39331Z" fill="#8B1325"/>
<path d="M7.62934 13.8725C7.62934 13.8725 1.13608 11.4792 1.88193 2.39331L2.67165 3.19109C2.05742 11.036 7.62934 13.1191 7.62934 13.1191V13.8725Z" fill="url(#paint5_linear_78_267)"/>
<path d="M4.16284 9.9723L5.08418 3.85596H6.61975L8.55018 9.9723H6.92687L6.09327 6.82549L5.61067 9.9723H4.16284Z" fill="white"/>
<path d="M8.77005 3.85596H10.3056L11.1831 9.9723H9.73526L9.20878 6.78116L8.6823 9.26316L7.89258 6.78116L8.77005 3.85596Z" fill="white"/>
<path d="M21.6684 6.82549H20.5277L19.4309 3.98893L19.036 6.82549H17.7637L18.5973 1.55125H19.8257L21.6684 6.82549ZM20.8348 4.12189L21.7562 1.55125H23.0285L23.7743 6.82549H22.502L22.151 3.98893L21.4052 5.67314L20.8348 4.12189Z" fill="black"/>
<path d="M28.513 5.89474L28.2059 6.78117H26.9336L28.6885 1.50693H30.0047L31.7158 6.78117H30.4435L30.1364 5.89474H28.513ZM29.3466 3.14682L28.8202 4.83103H29.8292L29.3466 3.14682Z" fill="black"/>
<path d="M38.0766 5.22992H35.6197C35.6197 5.76178 35.883 6.02771 36.3217 6.02771C36.5411 6.02771 36.7604 5.93907 36.892 5.71746H37.9889C37.9011 6.11635 37.6818 6.4266 37.3747 6.64821C37.0675 6.86981 36.7166 6.95846 36.3217 6.95846C35.3565 7.0471 34.5229 6.29364 34.4351 5.31857V5.05264C34.3474 4.07757 35.0494 3.23546 36.0146 3.14682H36.2339C37.3747 3.14682 38.0328 3.9446 38.0328 5.14128L38.0766 5.22992ZM37.0237 4.47646C36.9798 4.16621 36.6727 3.90028 36.3656 3.90028C36.0146 3.90028 35.7513 4.12189 35.6636 4.47646H37.0237Z" fill="black"/>
<path d="M42.0699 5.22992H39.613C39.613 5.76178 39.8762 6.02771 40.3588 6.02771C40.5782 6.02771 40.7975 5.93907 40.9292 5.71746H42.026C41.9382 6.11635 41.7189 6.4266 41.4118 6.64821C41.1047 6.86981 40.7537 6.95846 40.3588 6.95846C39.3936 7.0471 38.5161 6.29364 38.4722 5.31857V5.05264C38.3845 4.07757 39.0865 3.23546 40.0517 3.14682H40.3149C41.4556 3.14682 42.1137 3.9446 42.1137 5.14128L42.0699 5.22992ZM41.0169 4.47646C40.973 4.16621 40.6659 3.90028 40.3588 3.90028C40.0078 3.90028 39.7446 4.12189 39.6568 4.47646H41.0169Z" fill="black"/>
<path d="M42.2451 2.52632C42.2451 2.03878 42.64 1.63989 43.1226 1.63989C43.6052 1.63989 44.0001 2.03878 44.0001 2.52632C44.0001 3.01385 43.6052 3.41275 43.1226 3.41275C42.64 3.41275 42.2451 3.05818 42.2451 2.52632ZM42.3767 2.52632C42.3767 2.92521 42.7277 3.27978 43.1226 3.27978C43.5174 3.27978 43.8684 2.92521 43.8684 2.52632C43.8684 2.12743 43.5174 1.77286 43.1226 1.77286C42.7277 1.77286 42.3767 2.08311 42.3767 2.52632ZM43.5613 3.01385H43.3858L43.1226 2.57064H42.9471V3.01385H42.8155V2.03878H43.2103C43.3858 2.03878 43.5613 2.08311 43.5613 2.30471C43.5613 2.43768 43.4736 2.57064 43.342 2.57064H43.2542L43.5613 3.01385ZM42.9471 2.17175V2.43768H43.1226C43.2542 2.43768 43.4297 2.43768 43.4297 2.30471C43.4297 2.17175 43.342 2.17175 43.2103 2.17175H42.9471Z" fill="black"/>
<path d="M32.1542 4.12189H31.4961V3.23546H32.1981V2.83657C32.1981 1.77286 32.6807 1.41829 33.602 1.41829C33.8214 1.41829 33.9969 1.46261 34.1724 1.46261L34.1285 2.30472C33.9969 2.26039 33.9091 2.26039 33.7775 2.26039C33.4704 2.26039 33.3826 2.482 33.3826 2.83657V3.23546H34.2162V4.12189H33.3388V6.82549H32.1542V4.12189Z" fill="black"/>
<path d="M20.3523 9.35179C20.0452 9.21883 19.7381 9.13019 19.431 9.13019C19.0361 9.13019 18.5535 9.26315 18.5535 9.79501C18.5535 10.7258 20.7472 10.5041 20.7472 12.144C20.7472 13.2078 19.9136 13.651 18.9045 13.651C18.5535 13.651 18.2026 13.5623 17.8954 13.4294L17.9832 12.7645C18.3342 12.8975 18.6852 12.9861 19.0361 13.0305C19.431 13.0305 20.0014 12.8089 20.0014 12.1884C20.0014 11.0803 17.8516 11.3463 17.8516 9.83933C17.8516 8.9529 18.5974 8.50969 19.4749 8.50969C19.8259 8.50969 20.2207 8.59833 20.5717 8.68697L20.3523 9.35179Z" fill="black"/>
<path d="M21.7129 8.5983H24.5647V9.21879H22.4587V10.6814H24.3892V11.3019H22.4587V12.9418H24.5647V13.5623H21.7129V8.5983Z" fill="black"/>
<path d="M28.9076 9.39612C28.6005 9.21884 28.2495 9.13019 27.8547 9.13019C26.8017 9.13019 25.9242 9.9723 25.9242 11.036C25.9242 12.0997 26.7578 12.9861 27.8108 12.9861C28.2057 12.9861 28.5566 12.8975 28.9076 12.7202L28.9515 13.385C28.6005 13.518 28.2057 13.6066 27.8108 13.6066C26.2314 13.6066 25.1345 12.5873 25.1345 10.9917C25.1345 9.48476 26.2752 8.42105 27.8108 8.42105C28.2057 8.42105 28.6005 8.46537 28.9515 8.64266L28.9076 9.39612Z" fill="black"/>
<path d="M33.514 11.4792C33.514 12.8975 32.7682 13.6066 31.5397 13.6066C30.3113 13.6066 29.5654 12.8531 29.5654 11.4792V8.5983H30.2674V11.4349C30.2674 12.3656 30.5745 13.0304 31.4959 13.0304C32.4172 13.0304 32.7243 12.3656 32.7243 11.4349V8.5983H33.4702L33.514 11.4792Z" fill="black"/>
<path d="M34.655 8.59834H35.8835C36.8926 8.59834 37.8578 8.77563 37.8578 9.92798C37.8578 10.5042 37.3752 10.9917 36.8048 11.036C37.0242 11.1247 37.1119 11.2133 37.2874 11.5236L38.2527 13.518H37.4191L36.6293 11.7895C36.41 11.3019 36.1467 11.3019 35.7957 11.3019H35.357V13.518H34.655V8.59834ZM35.357 10.7258H35.9712C36.6732 10.7258 37.0681 10.4155 37.0681 9.92798C37.0681 9.48477 36.7171 9.17452 36.059 9.17452H35.357V10.7258Z" fill="black"/>
<path d="M39.0859 8.5983H41.9377V9.21879H39.8318V10.6814H41.7622V11.3019H39.8318V12.9418H41.9377V13.5623H39.0859V8.5983Z" fill="black"/>
<path d="M26.6699 4.34349C26.4505 4.21052 26.2312 4.12188 25.9679 4.12188C25.4853 4.12188 25.0905 4.52077 25.0905 5.00831V5.09695C25.0905 5.58448 25.4853 6.0277 26.0118 6.0277H26.0557C26.3189 6.0277 26.5383 5.98338 26.8015 5.85041V6.73684C26.4944 6.8698 26.1873 6.91412 25.8802 6.91412C24.8711 7.00277 24.0375 6.2493 23.9497 5.22991V5.05263C23.9059 4.03324 24.6956 3.19113 25.7047 3.19113H25.8802C26.1873 3.19113 26.4944 3.23545 26.7576 3.41274L26.6699 4.34349Z" fill="black"/>
<defs>
<linearGradient id="paint0_linear_78_267" x1="6.16294" y1="1.45512" x2="14.894" y2="16.4994" gradientUnits="userSpaceOnUse">
<stop stop-color="#646567"/>
<stop offset="0.097" stop-color="#717274"/>
<stop offset="0.317" stop-color="#898B8D"/>
<stop offset="0.54" stop-color="#9A9B9D"/>
<stop offset="0.766" stop-color="#A4A5A7"/>
<stop offset="1" stop-color="#A7A8AA"/>
</linearGradient>
<linearGradient id="paint1_linear_78_267" x1="9.23729" y1="4.938" x2="-1.60445" y2="11.5144" gradientUnits="userSpaceOnUse">
<stop stop-color="#C6C7C8"/>
<stop offset="0.092" stop-color="#DCDDDD"/>
<stop offset="0.203" stop-color="#F0F0F0"/>
<stop offset="0.316" stop-color="#FBFBFB"/>
<stop offset="0.433" stop-color="white"/>
<stop offset="0.537" stop-color="#F6F7F7"/>
<stop offset="0.704" stop-color="#DFDFE0"/>
<stop offset="0.913" stop-color="#B9BABB"/>
<stop offset="1" stop-color="#A7A8AA"/>
</linearGradient>
<linearGradient id="paint2_linear_78_267" x1="12.0303" y1="3.25492" x2="0.627482" y2="10.4163" gradientUnits="userSpaceOnUse">
<stop stop-color="#4B4B4D"/>
<stop offset="0.013" stop-color="#4D4D4F"/>
<stop offset="0.253" stop-color="#67686A"/>
<stop offset="0.497" stop-color="#797A7C"/>
<stop offset="0.744" stop-color="#838486"/>
<stop offset="1" stop-color="#87888A"/>
</linearGradient>
<linearGradient id="paint3_linear_78_267" x1="4.42951" y1="3.83065" x2="13.8688" y2="10.8171" gradientUnits="userSpaceOnUse">
<stop stop-color="#8B1325"/>
<stop offset="0.607" stop-color="#CB0233"/>
<stop offset="0.708" stop-color="#CB0233"/>
<stop offset="1" stop-color="#8A193F"/>
</linearGradient>
<radialGradient id="paint4_radial_78_267" cx="0" cy="0" r="1" gradientUnits="userSpaceOnUse" gradientTransform="translate(-4220.45 -3072.58) scale(10.1156 10.2189)">
<stop stop-color="#CB0233"/>
<stop offset="0.461" stop-color="#CB0233"/>
<stop offset="1" stop-color="#8A193F"/>
</radialGradient>
<linearGradient id="paint5_linear_78_267" x1="0.189645" y1="13.444" x2="10.5935" y2="10.3456" gradientUnits="userSpaceOnUse">
<stop stop-color="#8B1325"/>
<stop offset="0.607" stop-color="#CB0233"/>
<stop offset="0.708" stop-color="#CB0233"/>
<stop offset="1" stop-color="#8A193F"/>
</linearGradient>
</defs>
</svg>
