<svg width="41" height="16" viewBox="0 0 41 16" fill="none" xmlns="http://www.w3.org/2000/svg">
<g clip-path="url(#clip0_78_301)">
<path d="M6.86115 2.1257C3.07275 2.1257 0 5.23223 0 9.06228C0 12.8923 3.07275 15.9987 6.86115 15.9987C10.6495 15.9987 13.7221 12.8925 13.7221 9.06249C13.7221 5.23244 10.6495 2.12591 6.86115 2.12591V2.1257ZM6.83552 4.30187C9.43738 4.30187 11.544 6.43182 11.544 9.06228C11.544 11.6927 9.43738 13.8225 6.83552 13.8225C4.23366 13.8225 2.12052 11.6927 2.12052 9.06228C2.12052 6.43182 4.23366 4.30187 6.83552 4.30187Z" fill="#FEB511"/>
<path d="M15.7595 3.62187V9.66456H16.9511V5.47409L19.0651 9.66456H20.3527V3.62187H19.1615V7.39119L17.2074 3.62207H16.0157L15.7595 3.62187ZM23.0755 5.11803C22.7759 5.11759 22.4791 5.17693 22.2022 5.29265C21.9253 5.40836 21.6737 5.57818 21.4618 5.79237C21.25 6.00656 21.082 6.26091 20.9675 6.54085C20.853 6.82078 20.7943 7.12081 20.7947 7.42373C20.7947 8.69938 21.8135 9.73586 23.0755 9.73586C24.3375 9.73586 25.3625 8.69938 25.3625 7.42352C25.3625 6.14788 24.3373 5.11803 23.0755 5.11803ZM23.0817 6.23845C23.7274 6.23845 24.2477 6.77109 24.2477 7.42352C24.2477 8.07637 23.7272 8.60238 23.0819 8.60238C22.4365 8.60238 21.9095 8.07617 21.9095 7.42352C21.9102 7.1094 22.0339 6.80836 22.2537 6.58626C22.4734 6.36416 22.771 6.2391 23.0817 6.23845ZM25.6716 5.21585V9.66456H26.966V7.85876C26.966 7.21855 27.1042 6.8399 27.334 6.56549C27.5724 6.28093 27.7819 6.11389 28.4219 6.10539L28.9074 6.11202L28.9139 8.14663C28.9149 8.45793 28.9303 8.72052 28.9994 8.94414C29.1583 9.45813 29.5447 9.73979 30.2921 9.73979C30.6337 9.73979 30.9666 9.69358 31.2823 9.57606L31.1271 8.67326C30.9789 8.73067 30.8022 8.76694 30.6675 8.76819C30.2878 8.77171 30.2003 8.60383 30.2015 8.20238V6.11202H31.1335L31.1367 5.21565H30.2015L30.1985 3.95617L29.1534 3.95306L28.9299 5.21565H28.3217C28.1273 5.21565 27.9779 5.21731 27.8307 5.25503C27.2075 5.41378 26.9517 5.8772 26.7944 6.16756L26.4289 5.21565L25.6716 5.21585ZM33.5654 5.11803C33.2658 5.11762 32.969 5.17698 32.6921 5.29271C32.4153 5.40844 32.1637 5.57826 31.9518 5.79244C31.74 6.00663 31.572 6.26097 31.4575 6.54089C31.3431 6.82082 31.2843 7.12083 31.2847 7.42373C31.2847 8.69938 32.3036 9.73586 33.5654 9.73586C34.8271 9.73586 35.8524 8.69938 35.8524 7.42352C35.8524 6.14788 34.8273 5.11803 33.5654 5.11803ZM33.5717 6.23845C34.2173 6.23845 34.7378 6.77109 34.7378 7.42352C34.7378 8.07637 34.2173 8.60238 33.5717 8.60238C32.9262 8.60238 32.3993 8.07617 32.3993 7.42352C32.4 7.10937 32.5238 6.80829 32.7436 6.58619C32.9633 6.36408 33.261 6.23905 33.5717 6.23845ZM38.6939 5.11803C38.1018 5.12114 37.6156 5.40922 37.1627 5.90145L36.9128 5.21503H36.157V9.66456H37.419V6.60756C37.5481 6.45979 37.8398 6.18622 38.2133 6.18663C38.6877 6.18705 38.8599 6.49544 38.8603 6.84073L38.8669 9.66456H40.1545V6.80176C40.1555 5.68839 39.5149 5.11326 38.6939 5.11803ZM40.2715 5.7315V5.30622H40.1485V5.21793H40.4923V5.30622H40.3662V5.7315H40.2715ZM40.5573 5.7315V5.21793H40.694L40.7851 5.55803L40.8708 5.21813H41.0001V5.7315H40.9282V5.33171L40.816 5.7315H40.7477L40.6452 5.32446V5.7315H40.5573ZM13.7864 0.545389V1.07658H14.3118V0.545181L13.7864 0.545389ZM13.7864 1.07658H12.8126V1.60756H13.7864V1.07658ZM12.8126 1.60756H12.3257V2.64383H12.8126V1.60756ZM12.8126 2.64383V3.14912H13.3124V2.64383H12.8126ZM13.3124 2.64383H13.8632V2.14518H13.3122L13.3124 2.64383ZM12.8126 3.14912H12.3257V3.66725H11.8196V3.14912H10.9932V3.51803H10.5447V3.9715H11.0381V4.47679H10.5383L10.5447 3.9715H10.0066V4.76819H9.50698V5.26684H9.1675V5.77212H8.80875C8.03713 7.0513 7.41803 8.23306 7.05969 9.10746C6.0763 7.78373 5.61505 7.30705 4.78583 6.84073C4.4894 6.67409 4.22536 6.59658 4.03614 6.70477C3.83955 6.8171 3.78194 7.17192 4.02999 7.44943C5.56955 9.17337 5.8465 10.0932 6.40656 11.4067C6.57343 11.7984 6.88831 11.9665 7.24583 11.9767C7.43689 11.9821 7.67141 11.9236 7.82864 11.7371C7.90162 11.6507 7.92294 11.5323 7.98239 11.3873C8.45041 10.2465 8.96967 9.10269 9.71874 8.01316L9.72489 7.44321H10.1222L10.1158 6.93793H10.5449L10.5387 6.33544H11.0383V5.78497H10.5322L10.5385 5.26684H11.0383V5.78497H11.5379V5.26041H11.9289V4.64508H12.3835V4.22414H12.8126V3.14912ZM11.8196 3.14912H12.3257V2.64383H11.8196V3.14912ZM11.8196 2.64383V2.15803H11.3136V2.64383H11.8196Z" fill="black"/>
<path d="M12.8125 1.61005H13.3113V2.14207H12.8125V1.61005ZM14.309 1.07803H14.8488V1.61005H14.309V1.07803ZM14.309 0.00134277H14.8488V0.546006H14.309V0.00134277Z" fill="#FEB511"/>
<path d="M16.0425 14.4495H15.8047V11.1338H16.2053V12.3595C16.3637 12.1589 16.5857 12.0206 16.8313 12.0283C17.497 12.049 17.743 12.6488 17.7503 13.2283C17.7594 13.923 17.3815 14.489 16.7715 14.4955C16.5103 14.4982 16.2827 14.3806 16.1339 14.1601L16.0425 14.4495ZM16.2077 13.9251C16.3713 14.0774 16.4029 14.1599 16.7196 14.1628C17.1956 14.1672 17.3178 13.6331 17.3168 13.2621C17.3155 12.7943 17.1882 12.3937 16.7752 12.3817C16.515 12.374 16.3375 12.504 16.2128 12.6461L16.2077 13.9251ZM18.0966 15.2772L18.1489 14.9715C18.4851 15.0391 18.7278 14.9657 18.86 14.591L18.0271 12.0762H18.4441L19.0324 14.0808L19.5882 12.0762H19.9955L19.1864 14.6814C18.9996 15.2828 18.563 15.3891 18.0966 15.2772ZM21.2218 14.1L21.4256 13.8155C21.736 14.0401 21.9697 14.1313 22.3514 14.133C22.7642 14.1351 23.0279 13.9179 23.0256 13.5819C23.0193 12.6383 21.418 13.1674 21.3905 11.9096C21.3784 11.3583 21.8641 11.0868 22.3325 11.0843C22.6861 11.0824 23.0178 11.1365 23.2435 11.2977L23.0672 11.6182C22.9612 11.5118 22.5797 11.4408 22.3725 11.4391C22.0117 11.4364 21.7837 11.5809 21.7733 11.8874C21.7429 12.7894 23.4305 12.293 23.4276 13.5724C23.4266 14.1688 22.986 14.4791 22.3501 14.4847C21.7628 14.4899 21.326 14.2215 21.2218 14.1ZM26.0817 14.4463V12.0799H26.3288L26.4249 12.4658C26.6193 12.2043 26.9559 12.0298 27.2392 12.0306C27.5739 12.0316 27.7162 12.2702 27.7593 12.4451C27.9704 12.1964 28.2537 12.0306 28.5405 12.0283C29.0346 12.0242 29.1479 12.3885 29.1479 12.7972V14.4463L28.7472 14.4478V12.928C28.7472 12.5952 28.7076 12.3792 28.4255 12.385C28.1129 12.3918 27.9464 12.5997 27.8324 12.7025V14.4478H27.4165V12.883C27.4165 12.5655 27.3655 12.3817 27.0988 12.3875C26.8302 12.3933 26.7517 12.5025 26.4913 12.7112V14.448L26.0817 14.4463ZM31.1346 14.1643C30.9273 14.3838 30.6608 14.489 30.4111 14.4868C30.0132 14.4828 29.6908 14.2381 29.6924 13.8401C29.6941 13.3545 30.0253 13.22 30.3093 13.1247C30.5893 13.0306 30.8127 12.9981 31.0667 12.9533C31.0776 12.5311 30.9892 12.3751 30.6477 12.3728C30.3398 12.3707 30.0758 12.5123 29.962 12.5717L29.8168 12.3011C29.9292 12.2126 30.2119 12.0331 30.6748 12.0289C31.1824 12.0248 31.4849 12.3129 31.4851 12.8517L31.4858 14.4478H31.2389L31.1346 14.1643ZM31.07 13.2289C30.8179 13.2787 30.6795 13.3208 30.4817 13.3844C30.2277 13.4658 30.1049 13.5954 30.1079 13.831C30.111 14.0781 30.2719 14.1732 30.4724 14.1684C30.7123 14.1628 30.8669 14.0834 31.0684 13.9299L31.07 13.2289ZM35.7229 14.1272L35.784 14.4086C35.6434 14.487 35.433 14.4816 35.3488 14.482C34.8543 14.4834 34.7801 14.1593 34.7801 13.7898V12.3709H34.4308V12.0762H34.7801L34.8998 11.4016L35.1862 11.4005V12.0762H35.7131V12.3709H35.1862V13.8113C35.1862 14.1628 35.3311 14.1643 35.4675 14.1699C35.5987 14.1755 35.7229 14.1272 35.7229 14.1272ZM37.7577 13.928L37.9279 14.1736C37.7497 14.3149 37.5499 14.4876 37.1202 14.489C36.4043 14.4911 36.0849 13.9373 36.0878 13.2789C36.0909 12.6227 36.3906 12.0327 37.0505 12.0291C37.8709 12.0244 37.9865 12.8254 37.9861 13.3838H36.5218C36.5224 13.8323 36.7028 14.1574 37.072 14.161C37.4533 14.1645 37.7577 13.928 37.7577 13.928ZM36.5216 13.1H37.5626C37.5421 12.7284 37.4472 12.3373 37.0542 12.3423C36.6329 12.3475 36.5499 12.7402 36.5216 13.1ZM40.1189 14.1734C39.9514 14.3375 39.6851 14.4799 39.3414 14.4824C38.6827 14.4874 38.3584 13.9738 38.3584 13.2642C38.3582 12.5574 38.7104 12.0296 39.3953 12.0283C39.6989 12.0277 39.9172 12.1502 40.0742 12.2791L39.8969 12.5512C39.7981 12.4716 39.5808 12.361 39.3908 12.3637C38.9246 12.3703 38.7794 12.7174 38.7805 13.2532C38.7815 13.6994 38.8793 14.1504 39.3887 14.1552C39.5402 14.1566 39.7233 14.1023 39.9201 13.9297L40.1189 14.1734ZM23.7396 15.2772L23.7917 14.9715C24.1279 15.0391 24.3708 14.9657 24.503 14.591L23.6699 12.0762H24.0871L24.6754 14.0808L25.2312 12.0762H25.6385L24.8294 14.6814C24.6426 15.2828 24.2058 15.3891 23.7396 15.2772ZM32.1678 14.4463V12.0799H32.4148L32.5108 12.4658C32.7053 12.2043 33.0694 12.0279 33.3984 12.0306C33.8248 12.0341 33.9917 12.414 33.9917 12.8136V14.4478H33.5757V12.883C33.5757 12.5655 33.5245 12.3817 33.258 12.3875C32.9894 12.3933 32.8377 12.5025 32.5772 12.7112V14.448L32.1678 14.4463Z" fill="#999999"/>
</g>
<defs>
<clipPath id="clip0_78_301">
<rect width="41" height="16" fill="white"/>
</clipPath>
</defs>
</svg>
