<svg width="21" height="20" viewBox="0 0 21 20" fill="none" xmlns="http://www.w3.org/2000/svg">
<circle cx="10.1665" cy="10" r="9" fill="#2C7EF8" stroke="#2C7EF8" stroke-width="2"/>
<path d="M9.8555 15.203C9.35617 15.203 8.8965 15.1143 8.4765 14.937C8.0565 14.7597 7.69484 14.5077 7.3915 14.181C7.08817 13.8497 6.8665 13.4553 6.7265 12.998L7.7065 12.704C7.8745 13.2033 8.14984 13.5813 8.5325 13.838C8.91984 14.0947 9.35617 14.2183 9.8415 14.209C10.2895 14.1997 10.6745 14.0993 10.9965 13.908C11.3232 13.7167 11.5728 13.4507 11.7455 13.11C11.9182 12.7693 12.0045 12.375 12.0045 11.927C12.0045 11.241 11.8038 10.6903 11.4025 10.275C11.0058 9.855 10.4808 9.645 9.8275 9.645C9.6455 9.645 9.45417 9.67067 9.2535 9.722C9.05284 9.76867 8.86617 9.83633 8.6935 9.925L8.1755 9.106L12.0955 5.487L12.2635 5.907H7.1255V4.92H12.9495V5.921L9.5335 9.183L9.5195 8.777C10.2195 8.68833 10.8355 8.76767 11.3675 9.015C11.8995 9.26233 12.3148 9.64033 12.6135 10.149C12.9168 10.653 13.0685 11.2457 13.0685 11.927C13.0685 12.571 12.9285 13.1403 12.6485 13.635C12.3732 14.125 11.9928 14.51 11.5075 14.79C11.0222 15.0653 10.4715 15.203 9.8555 15.203Z" fill="white"/>
</svg>
